<?xml version="1.0" encoding="UTF-8"?>
<svg width="329px" height="321px" viewBox="0 0 329 321" version="1.1" xmlns="http://www.w3.org/2000/svg" xmlns:xlink="http://www.w3.org/1999/xlink">
    <!-- Generator: Sketch 52.2 (67145) - http://www.bohemiancoding.com/sketch -->
    <title>Group1x</title>
    <desc>Created with Sketch.</desc>
    <defs>
        <filter x="-26.1%" y="-26.6%" width="152.2%" height="153.1%" filterUnits="objectBoundingBox" id="filter-1">
            <feOffset dx="0" dy="10" in="SourceAlpha" result="shadowOffsetOuter1"></feOffset>
            <feGaussianBlur stdDeviation="15" in="shadowOffsetOuter1" result="shadowBlurOuter1"></feGaussianBlur>
            <feColorMatrix values="0 0 0 0 0.262728529   0 0 0 0 0.0234438355   0 0 0 0 0.0234438355  0 0 0 0.641870471 0" type="matrix" in="shadowBlurOuter1" result="shadowMatrixOuter1"></feColorMatrix>
            <feMerge>
                <feMergeNode in="shadowMatrixOuter1"></feMergeNode>
                <feMergeNode in="SourceGraphic"></feMergeNode>
            </feMerge>
        </filter>
        <linearGradient x1="50%" y1="3.91704714%" x2="50%" y2="100%" id="linearGradient-2">
            <stop stop-color="#742FC2" offset="0%"></stop>
            <stop stop-color="#A044FF" offset="100%"></stop>
        </linearGradient>
        <linearGradient x1="44.7612884%" y1="65.159237%" x2="-6.93991394%" y2="0%" id="linearGradient-3">
            <stop stop-color="#FFFFFF" stop-opacity="0" offset="0%"></stop>
            <stop stop-color="#FFFFFF" offset="100%"></stop>
        </linearGradient>
        <path d="M64.5744939,14.757621 L188.086606,14.7687294 C215.698903,14.7701016 238.082749,37.1539473 238.084121,64.7662438 L238.100194,188.131906 C238.101567,215.746143 215.716917,238.133019 188.10268,238.134391 C188.101023,238.134391 188.099366,238.134391 188.09771,238.134391 L64.5855976,238.118313 C36.9733011,238.116941 14.589455,215.733095 14.5880824,188.120798 L14.5720095,64.7551364 C14.5706368,37.140899 36.9552865,14.7540237 64.5695239,14.752651 C64.5711807,14.7526509 64.5728374,14.7526509 64.5744941,14.752651 Z" id="path-4"></path>
        <filter x="-46.5%" y="-46.5%" width="193.0%" height="193.1%" filterUnits="objectBoundingBox" id="filter-6">
            <feGaussianBlur stdDeviation="34.6488644" in="SourceGraphic"></feGaussianBlur>
        </filter>
        <linearGradient x1="50%" y1="1.01442921%" x2="50%" y2="98.7962372%" id="linearGradient-7">
            <stop stop-color="#ECF6FF" offset="1.41302615%"></stop>
            <stop stop-color="#0D1A62" offset="99.3243782%"></stop>
        </linearGradient>
        <path d="M64.09713,4.51582659e-15 L159.41419,2.22157948e-14 C181.702159,-1.67413126e-15 189.784315,2.32064028 197.932463,6.67831759 C206.080611,11.0359949 212.475325,17.4307093 216.833002,25.5788574 C221.19068,33.7270056 223.51132,41.8091615 223.51132,64.09713 L223.51132,159.265198 C223.51132,181.553166 221.19068,189.635322 216.833002,197.783471 C212.475325,205.931619 206.080611,212.326333 197.932463,216.68401 C189.784315,221.041688 181.702159,223.362328 159.41419,223.362328 L64.09713,223.362328 C41.8091615,223.362328 33.7270056,221.041688 25.5788574,216.68401 C17.4307093,212.326333 11.0359949,205.931619 6.67831759,197.783471 C2.32064028,189.635322 8.10851577e-15,181.553166 5.37902684e-15,159.265198 L8.83182787e-15,64.09713 C6.10233894e-15,41.8091615 2.32064028,33.7270056 6.67831759,25.5788574 C11.0359949,17.4307093 17.4307093,11.0359949 25.5788574,6.67831759 C33.7270056,2.32064028 41.8091615,8.61005998e-15 64.09713,4.51582659e-15 Z" id="path-8"></path>
    </defs>
    <g id="Page-1" stroke="none" stroke-width="1" fill="none" fill-rule="evenodd">
        <g id="Sublime-Text-Icon-Copy" transform="translate(-372.000000, -145.000000)">
            <g id="Group" transform="translate(383.000000, 155.000000)">
                <g id="Group-Copy" transform="translate(147.500000, 145.000000) rotate(-360.000000) translate(-147.500000, -145.000000) ">
                    <g id="Group-4" filter="url(#filter-1)" transform="translate(-0.000000, 0.000000)">
                        <g id="Group-2" transform="translate(144.807844, 144.757067) rotate(-9.000000) translate(-144.807844, -144.757067) translate(18.307844, 18.257067)">
                            <mask id="mask-5" fill="white">
                                <use xlink:href="#path-4"></use>
                            </mask>
                            <g id="Rectangle" transform="translate(126.336102, 126.443521) rotate(-8.000000) translate(-126.336102, -126.443521) ">
                                <use fill="url(#linearGradient-2)" fill-rule="evenodd" xlink:href="#path-4"></use>
                                <use fill-opacity="0.400000006" fill="url(#linearGradient-3)" fill-rule="evenodd" style="mix-blend-mode: overlay;" xlink:href="#path-4"></use>
                                <path stroke-opacity="0.280457428" stroke="#FFE7DB" stroke-width="2" d="M63.8714389,15.7575577 C37.131345,16.1323174 15.5706758,37.9262287 15.5720094,64.7550061 L15.5880824,188.120749 C15.5894275,215.180799 37.5255967,237.116968 64.5857277,237.118313 L188.097759,237.134391 C188.100195,237.134391 188.100195,237.134391 188.10263,237.134391 C215.164583,237.133046 237.10154,215.193908 237.100194,188.132036 L237.084121,64.7662935 C237.082776,37.706243 215.146607,15.7700741 188.086516,15.7687294 L63.8714389,15.7575577 Z" stroke-linejoin="square"></path>
                            </g>
                            <path d="M150.097172,3.05378183 L150.246164,3.05378183 C211.925968,3.05378183 261.927328,53.0551421 261.927328,114.734946 L261.927328,114.734946 C261.927328,176.41475 211.925968,226.41611 150.246164,226.41611 L150.097172,226.41611 C88.4173684,226.41611 38.4160081,176.41475 38.4160081,114.734946 L38.4160081,114.734946 C38.4160081,53.0551421 88.4173684,3.05378183 150.097172,3.05378183 Z" id="Rectangle" fill="#742FC2" filter="url(#filter-6)" mask="url(#mask-5)"></path>
                        </g>
                        <g id="Group-3" transform="translate(170.128676, 127.515580) rotate(-7.000000) translate(-170.128676, -127.515580) translate(58.128676, 15.515580)">
                            <g id="Rectangle">
                                <use fill="#F4F8FB" fill-rule="evenodd" xlink:href="#path-8"></use>
                                <use fill="url(#linearGradient-7)" fill-rule="evenodd" style="mix-blend-mode: overlay;" xlink:href="#path-8"></use>
                                <path stroke-opacity="0.573397871" stroke="#FFFFFF" stroke-width="2" d="M64.09713,1 C43.9276791,1 35.1458839,2.69584288 26.0504563,7.56013079 C18.0765766,11.8246083 11.8246083,18.0765766 7.56013079,26.0504563 C2.69584288,35.1458839 1,43.9276791 1,64.09713 L1,159.265198 C1,179.434649 2.69584288,188.216444 7.56013079,197.311872 C11.8246083,205.285751 18.0765766,211.53772 26.0504563,215.802197 C35.1458839,220.666485 43.9276791,222.362328 64.09713,222.362328 L159.41419,222.362328 C179.583641,222.362328 188.365436,220.666485 197.460864,215.802197 C205.434743,211.53772 211.686712,205.285751 215.951189,197.311872 C220.815477,188.216444 222.51132,179.434649 222.51132,159.265198 L222.51132,64.09713 C222.51132,43.9276791 220.815477,35.1458839 215.951189,26.0504563 C211.686712,18.0765766 205.434743,11.8246083 197.460864,7.56013079 C188.365436,2.69584288 179.583641,1 159.41419,1 L64.09713,1 Z" stroke-linejoin="square"></path>
                            </g>
                        </g>
                    </g>
                </g>
                <path d="M170.263648,69 C169.668,69 169.062586,69.207641 168.584116,69.6426996 L161.407046,76.1290277 L152.003621,74.0229492 C150.753737,73.7460938 149.494088,74.4580078 149.093736,75.6939691 L146.076438,84.9488519 L136.907365,87.8854993 C135.67701,88.2711175 134.944657,89.5367425 135.198539,90.8122571 L137.161247,100.353882 L130.657945,107.532348 C129.788886,108.501343 129.779119,109.964722 130.638414,110.933715 L137.04407,118.201172 L134.964186,127.723023 C134.681009,128.988648 135.393833,130.26416 136.614423,130.669555 L145.7542,133.724855 L148.644557,143.019288 C149.035146,144.25525 150.28503,144.996827 151.534914,144.739746 L160.967635,142.75232 L168.05682,149.337524 C168.535293,149.772582 169.150468,150 169.755882,150 C170.341765,150 170.937413,149.782472 171.415883,149.3573 L178.592953,142.870972 L187.996378,144.977051 C189.246262,145.253906 190.505911,144.532105 190.906264,143.306031 L193.913797,134.051148 L203.092634,131.12439 C204.32299,130.728882 205.055344,129.463257 204.80146,128.197632 L202.838752,118.646118 L209.342054,111.467652 C210.211116,110.498657 210.22088,109.035278 209.361585,108.066285 L202.955929,100.798828 L205.035813,91.2769769 C205.31899,90.0113519 204.596402,88.7358398 203.385576,88.330445 L194.245799,85.2751478 L191.345678,75.9807142 C190.955089,74.7447503 189.714969,74.0130622 188.455321,74.2602539 L179.032365,76.24768 L171.943179,69.6624762 C171.464709,69.2274176 170.859295,69 170.263648,69 Z M169.5,82 C184.666015,82 197,94.333985 197,109.5 C197,124.666015 184.666015,137 169.5,137 C154.333985,137 142,124.666015 142,109.5 C142,94.333985 154.333985,82 169.5,82 Z M169.5,87 C157.08789,87 147,97.08789 147,109.5 C147,121.91211 157.08789,132 169.5,132 C181.91211,132 192,121.91211 192,109.5 C192,97.08789 181.91211,87 169.5,87 Z M158.982422,148 L152.029297,149.455222 C151.541015,149.553549 151.04297,149.602711 150.544922,149.602711 C149.27539,149.602711 148.064453,149.288069 147,148.707946 L147,182.482859 C147,183.357958 147.44922,184.164231 148.18164,184.626363 C148.923828,185.088493 149.841797,185.117991 150.623047,184.73452 L169.5,175.226417 L188.376953,184.73452 C188.738282,184.911507 189.11914,185 189.5,185 C189.958985,185 190.41797,184.872177 190.81836,184.626363 C191.550782,184.164231 192,183.357958 192,182.482859 L192,148.698114 C190.83789,149.425726 189.470703,149.85836 188.02539,149.85836 C187.498047,149.85836 186.960938,149.799363 186.414062,149.681372 L179.509765,148.147489 L174.236327,152.886794 C172.859375,154.115866 171.091797,154.794314 169.25586,154.794314 C167.371095,154.794314 165.57422,154.0962 164.1875,152.817966 L158.982422,148 Z" id="Shape" fill="#742FC2" fill-rule="nonzero"></path>
            </g>
        </g>
    </g>
</svg>