<?xml version="1.0" encoding="UTF-8"?>
<svg width="329px" height="321px" viewBox="0 0 329 321" version="1.1" xmlns="http://www.w3.org/2000/svg" xmlns:xlink="http://www.w3.org/1999/xlink">
    <!-- Generator: Sketch 52.2 (67145) - http://www.bohemiancoding.com/sketch -->
    <title>Group 6@1x</title>
    <desc>Created with Sketch.</desc>
    <defs>
        <filter x="-26.1%" y="-26.6%" width="152.2%" height="153.1%" filterUnits="objectBoundingBox" id="filter-1">
            <feOffset dx="0" dy="10" in="SourceAlpha" result="shadowOffsetOuter1"></feOffset>
            <feGaussianBlur stdDeviation="15" in="shadowOffsetOuter1" result="shadowBlurOuter1"></feGaussianBlur>
            <feColorMatrix values="0 0 0 0 0.262728529   0 0 0 0 0.0234438355   0 0 0 0 0.0234438355  0 0 0 0.641870471 0" type="matrix" in="shadowBlurOuter1" result="shadowMatrixOuter1"></feColorMatrix>
            <feMerge>
                <feMergeNode in="shadowMatrixOuter1"></feMergeNode>
                <feMergeNode in="SourceGraphic"></feMergeNode>
            </feMerge>
        </filter>
        <linearGradient x1="50%" y1="3.91704714%" x2="50%" y2="100%" id="linearGradient-2">
            <stop stop-color="#742FC2" offset="0%"></stop>
            <stop stop-color="#A044FF" offset="100%"></stop>
        </linearGradient>
        <linearGradient x1="44.7612884%" y1="65.159237%" x2="-6.93991394%" y2="0%" id="linearGradient-3">
            <stop stop-color="#FFFFFF" stop-opacity="0" offset="0%"></stop>
            <stop stop-color="#FFFFFF" offset="100%"></stop>
        </linearGradient>
        <path d="M64.5744939,14.757621 L188.086606,14.7687294 C215.698903,14.7701016 238.082749,37.1539473 238.084121,64.7662438 L238.100194,188.131906 C238.101567,215.746143 215.716917,238.133019 188.10268,238.134391 C188.101023,238.134391 188.099366,238.134391 188.09771,238.134391 L64.5855976,238.118313 C36.9733011,238.116941 14.589455,215.733095 14.5880824,188.120798 L14.5720095,64.7551364 C14.5706368,37.140899 36.9552865,14.7540237 64.5695239,14.752651 C64.5711807,14.7526509 64.5728374,14.7526509 64.5744941,14.752651 Z" id="path-4"></path>
        <filter x="-46.5%" y="-46.5%" width="193.0%" height="193.1%" filterUnits="objectBoundingBox" id="filter-6">
            <feGaussianBlur stdDeviation="34.6488644" in="SourceGraphic"></feGaussianBlur>
        </filter>
        <linearGradient x1="50%" y1="1.01442921%" x2="50%" y2="98.7962372%" id="linearGradient-7">
            <stop stop-color="#ECF6FF" offset="1.41302615%"></stop>
            <stop stop-color="#0D1A62" offset="99.3243782%"></stop>
        </linearGradient>
        <path d="M64.09713,4.32461566e-12 L159.41419,4.34231563e-12 C181.702159,4.3184257e-12 189.784315,2.32064028 197.932463,6.67831759 C206.080611,11.0359949 212.475325,17.4307093 216.833002,25.5788574 C221.19068,33.7270056 223.51132,41.8091615 223.51132,64.09713 L223.51132,159.265198 C223.51132,181.553166 221.19068,189.635322 216.833002,197.783471 C212.475325,205.931619 206.080611,212.326333 197.932463,216.68401 C189.784315,221.041688 181.702159,223.362328 159.41419,223.362328 L64.09713,223.362328 C41.8091615,223.362328 33.7270056,221.041688 25.5788574,216.68401 C17.4307093,212.326333 11.0359949,205.931619 6.67831759,197.783471 C2.32064028,189.635322 1.82709792e-12,181.553166 1.82436843e-12,159.265198 L1.82782123e-12,64.09713 C1.82509174e-12,41.8091615 2.32064028,33.7270056 6.67831759,25.5788574 C11.0359949,17.4307093 17.4307093,11.0359949 25.5788574,6.67831759 C33.7270056,2.32064028 41.8091615,4.32870989e-12 64.09713,4.32461566e-12 Z" id="path-8"></path>
    </defs>
    <g id="Page-1" stroke="none" stroke-width="1" fill="none" fill-rule="evenodd">
        <g id="Sublime-Text-Icon-Copy" transform="translate(-49.000000, -698.000000)">
            <g id="Group-6" transform="translate(60.000000, 708.000000)">
                <g id="Group-Copy-2" transform="translate(147.500000, 145.000000) rotate(-360.000000) translate(-147.500000, -145.000000) ">
                    <g id="Group-4" filter="url(#filter-1)" transform="translate(-0.000000, 0.000000)">
                        <g id="Group-2" transform="translate(144.807844, 144.757067) rotate(-9.000000) translate(-144.807844, -144.757067) translate(18.307844, 18.257067)">
                            <mask id="mask-5" fill="white">
                                <use xlink:href="#path-4"></use>
                            </mask>
                            <g id="Rectangle" transform="translate(126.336102, 126.443521) rotate(-8.000000) translate(-126.336102, -126.443521) ">
                                <use fill="url(#linearGradient-2)" fill-rule="evenodd" xlink:href="#path-4"></use>
                                <use fill-opacity="0.400000006" fill="url(#linearGradient-3)" fill-rule="evenodd" style="mix-blend-mode: overlay;" xlink:href="#path-4"></use>
                                <path stroke-opacity="0.280457428" stroke="#FFE7DB" stroke-width="2" d="M63.8714389,15.7575577 C37.131345,16.1323174 15.5706758,37.9262287 15.5720094,64.7550061 L15.5880824,188.120749 C15.5894275,215.180799 37.5255967,237.116968 64.5857277,237.118313 L188.097759,237.134391 C188.100195,237.134391 188.100195,237.134391 188.10263,237.134391 C215.164583,237.133046 237.10154,215.193908 237.100194,188.132036 L237.084121,64.7662935 C237.082776,37.706243 215.146607,15.7700741 188.086516,15.7687294 L63.8714389,15.7575577 Z" stroke-linejoin="square"></path>
                            </g>
                            <path d="M150.097172,3.05378183 L150.246164,3.05378183 C211.925968,3.05378183 261.927328,53.0551421 261.927328,114.734946 L261.927328,114.734946 C261.927328,176.41475 211.925968,226.41611 150.246164,226.41611 L150.097172,226.41611 C88.4173684,226.41611 38.4160081,176.41475 38.4160081,114.734946 L38.4160081,114.734946 C38.4160081,53.0551421 88.4173684,3.05378183 150.097172,3.05378183 Z" id="Rectangle" fill="#742FC2" filter="url(#filter-6)" mask="url(#mask-5)"></path>
                        </g>
                        <g id="Group-3" transform="translate(170.128676, 127.515580) rotate(-7.000000) translate(-170.128676, -127.515580) translate(58.128676, 15.515580)">
                            <g id="Rectangle">
                                <use fill="#F4F8FB" fill-rule="evenodd" xlink:href="#path-8"></use>
                                <use fill="url(#linearGradient-7)" fill-rule="evenodd" style="mix-blend-mode: overlay;" xlink:href="#path-8"></use>
                                <path stroke-opacity="0.573397871" stroke="#FFFFFF" stroke-width="2" d="M64.09713,1 C43.9276791,1 35.1458839,2.69584288 26.0504563,7.56013079 C18.0765766,11.8246083 11.8246083,18.0765766 7.56013079,26.0504563 C2.69584288,35.1458839 1,43.9276791 1,64.09713 L1,159.265198 C1,179.434649 2.69584288,188.216444 7.56013079,197.311872 C11.8246083,205.285751 18.0765766,211.53772 26.0504563,215.802197 C35.1458839,220.666485 43.9276791,222.362328 64.09713,222.362328 L159.41419,222.362328 C179.583641,222.362328 188.365436,220.666485 197.460864,215.802197 C205.434743,211.53772 211.686712,205.285751 215.951189,197.311872 C220.815477,188.216444 222.51132,179.434649 222.51132,159.265198 L222.51132,64.09713 C222.51132,43.9276791 220.815477,35.1458839 215.951189,26.0504563 C211.686712,18.0765766 205.434743,11.8246083 197.460864,7.56013079 C188.365436,2.69584288 179.583641,1 159.41419,1 L64.09713,1 Z" stroke-linejoin="square"></path>
                            </g>
                        </g>
                    </g>
                </g>
                <g id="Group-5-Copy" transform="translate(173.309513, 133.288698) rotate(-15.000000) translate(-173.309513, -133.288698) translate(112.309513, 89.288698)" fill-rule="nonzero">
                    <g id="icons8-loyalty_filled" fill="#742FC2">
                        <path d="M109.291667,0 L12.7083333,0 C5.6988945,0 0,5.80331012 0,12.9411765 L0,75.0588235 C0,82.1966925 5.6988945,88 12.7083333,88 L109.291667,88 C116.301108,88 122,82.1966925 122,75.0588235 L122,12.9411765 C122,5.80331012 116.301108,0 109.291667,0 Z M78.7916667,69.8823529 C77.391765,69.8823529 76.25,68.7196685 76.25,67.2941176 C76.25,65.8685668 77.391765,64.7058824 78.7916667,64.7058824 C80.1915684,64.7058824 81.3333333,65.8685668 81.3333333,67.2941176 C81.3333333,68.7196685 80.1915684,69.8823529 78.7916667,69.8823529 Z M86.4166667,69.8823529 C85.016765,69.8823529 83.875,68.7196685 83.875,67.2941176 C83.875,65.8685668 85.016765,64.7058824 86.4166667,64.7058824 C87.8165684,64.7058824 88.9583333,65.8685668 88.9583333,67.2941176 C88.9583333,68.7196685 87.8165684,69.8823529 86.4166667,69.8823529 Z M94.0416667,69.8823529 C92.641765,69.8823529 91.5,68.7196685 91.5,67.2941176 C91.5,65.8685668 92.641765,64.7058824 94.0416667,64.7058824 C95.4415684,64.7058824 96.5833333,65.8685668 96.5833333,67.2941176 C96.5833333,68.7196685 95.4415684,69.8823529 94.0416667,69.8823529 Z M101.666667,69.8823529 C100.266765,69.8823529 99.125,68.7196685 99.125,67.2941176 C99.125,65.8685668 100.266765,64.7058824 101.666667,64.7058824 C103.066568,64.7058824 104.208333,65.8685668 104.208333,67.2941176 C104.208333,68.7196685 103.066568,69.8823529 101.666667,69.8823529 Z" id="Shape"></path>
                    </g>
                    <g id="icons8-prize_filled" transform="translate(10.433336, 13.888811)" fill="#FFFFFF">
                        <path d="M19.8405134,0.996909431 C19.5501132,0.996909431 19.2549515,1.09688305 19.0216793,1.30635222 L15.5225918,4.42934711 L10.938073,3.41532621 C10.3287082,3.28202765 9.71458298,3.62479538 9.5193961,4.21987794 L8.04835155,8.67585846 L3.57808874,10.0897763 C2.9782446,10.2754412 2.62119579,10.8848061 2.74497242,11.4989325 L3.70186537,16.0929719 L0.531264451,19.5492126 C0.107565753,20.0157582 0.102804176,20.7203363 0.521742515,21.1868807 L3.64473741,24.6859683 L2.63071651,29.270487 C2.49265759,29.8798518 2.84018568,30.4939771 3.43526824,30.6891639 L7.89124876,32.1602097 L9.30040499,36.6352329 C9.49083151,37.2303154 10.1001964,37.5873655 10.7095612,37.4635876 L15.3083622,36.5066947 L18.7646029,39.6772956 C18.9978763,39.8867648 19.2977972,39.9962603 19.5929589,39.9962603 C19.8785987,39.9962603 20.1689988,39.8915263 20.402271,39.6868175 L23.9013586,36.5638226 L28.4858773,37.5778435 C29.0952421,37.7111421 29.7093674,37.363614 29.9045542,36.7732918 L31.3708384,32.3173113 L35.8458616,30.908155 C36.4457057,30.7177285 36.8027558,30.1083637 36.6789779,29.4989988 L35.722085,24.9001978 L38.8926859,21.4439571 C39.3163858,20.9774115 39.3211462,20.2728334 38.9022078,19.806289 L35.7792129,16.3072015 L36.7932338,11.7226828 C36.9312928,11.1133179 36.5790043,10.4991927 35.9886821,10.3040058 L31.5327016,8.83296126 L30.118785,4.35793808 C29.9283585,3.7628543 29.323754,3.41056585 28.7096288,3.52958212 L24.1155881,4.48647507 L20.6593474,1.31587415 C20.4260752,1.10640498 20.1309135,0.996909431 19.8405134,0.996909431 Z M19.7119752,7.09055801 C27.1052844,7.09055801 33.118002,13.1032756 33.118002,20.4965849 C33.118002,27.8898941 27.1052844,33.9026117 19.7119752,33.9026117 C12.3186659,33.9026117 6.3059483,27.8898941 6.3059483,20.4965849 C6.3059483,13.1032756 12.3186659,7.09055801 19.7119752,7.09055801 Z M19.7119752,9.52801744 C13.6611723,9.52801744 8.74340773,14.445782 8.74340773,20.4965849 C8.74340773,26.5473878 13.6611723,31.4651523 19.7119752,31.4651523 C25.7627781,31.4651523 30.6805426,26.5473878 30.6805426,20.4965849 C30.6805426,14.445782 25.7627781,9.52801744 19.7119752,9.52801744 Z M14.5847415,39.1441013 L11.1951495,39.8486795 C10.9571157,39.8962867 10.7143228,39.9200897 10.4715287,39.9200897 C9.8526419,39.9200897 9.26231969,39.7677485 8.74340773,39.4868691 L8.74340773,55.8397466 C8.74340773,56.2634453 8.96239884,56.6538203 9.31944765,56.8775717 C9.68125803,57.101322 10.128761,57.1156043 10.509614,56.9299381 L19.7119752,52.326378 L28.9143363,56.9299381 C29.0904818,57.0156307 29.2761467,57.0584763 29.4618129,57.0584763 C29.6855644,57.0584763 29.9093158,56.996588 30.1045027,56.8775717 C30.4615527,56.6538203 30.6805426,56.2634453 30.6805426,55.8397466 L30.6805426,39.4821087 C30.1140234,39.8343984 29.4475306,40.0438676 28.7429525,40.0438676 C28.4858773,40.0438676 28.2240405,40.015303 27.9574434,39.958175 L24.5916544,39.2155116 L22.0208964,41.5101517 C21.3496432,42.1052343 20.4879635,42.4337197 19.5929589,42.4337197 C18.6741513,42.4337197 17.7981893,42.0957124 17.1221745,41.4768268 L14.5847415,39.1441013 Z" id="Shape"></path>
                    </g>
                </g>
            </g>
        </g>
    </g>
</svg>